<svg width="21" height="20" viewBox="0 0 21 20" fill="none" xmlns="http://www.w3.org/2000/svg">
<path d="M12.5289 9.68751L8.9375 6.03595V9.45314C8.9375 9.5153 8.96219 9.57491 9.00615 9.61887C9.0501 9.66282 9.10971 9.68751 9.17188 9.68751H12.5289Z" fill="#064089"/>
<path d="M7.6875 10.4688V5.625H2.84375C2.71943 5.625 2.6002 5.67439 2.51229 5.76229C2.42439 5.8502 2.375 5.96943 2.375 6.09375V18.9062C2.375 19.0306 2.42439 19.1498 2.51229 19.2377C2.6002 19.3256 2.71943 19.375 2.84375 19.375H12.5312C12.6556 19.375 12.7748 19.3256 12.8627 19.2377C12.9506 19.1498 13 19.0306 13 18.9062V10.9375H8.15625C8.03193 10.9375 7.9127 10.8881 7.82479 10.8002C7.73689 10.7123 7.6875 10.5931 7.6875 10.4688Z" fill="#064089"/>
<path d="M14.7969 4.68751H18.1539L14.5625 1.03595V4.45314C14.5625 4.5153 14.5872 4.57491 14.6311 4.61887C14.6751 4.66282 14.7347 4.68751 14.7969 4.68751Z" fill="#064089"/>
<path d="M13.7812 5.9375C13.6569 5.9375 13.5377 5.88811 13.4498 5.80021C13.3619 5.7123 13.3125 5.59307 13.3125 5.46875V0.625H7.21875C7.09443 0.625 6.9752 0.674386 6.88729 0.762294C6.79939 0.850201 6.75 0.96943 6.75 1.09375V4.375H8.39531C8.60532 4.37584 8.81309 4.41817 9.00669 4.49955C9.20029 4.58093 9.3759 4.69976 9.52344 4.84922L13.7875 9.18516C14.085 9.48699 14.2511 9.89418 14.2496 10.318V15.625H18.1562C18.2806 15.625 18.3998 15.5756 18.4877 15.4877C18.5756 15.3998 18.625 15.2806 18.625 15.1562V5.9375H13.7812Z" fill="#064089"/>
</svg>
